<svg xmlns="http://www.w3.org/2000/svg" xmlns:xlink="http://www.w3.org/1999/xlink" viewBox="0 0 1688.26 658.5">
  <defs>
    <clipPath id="b296ac47-a2ba-4fc0-a086-574f4d12b676" transform="translate(95.42 132.81)">
      <path d="M181.53,284.07q1.71-17.46,2.86-35.3h10V234.58h-9.12Q190.61,132,178.3,17.18V11.56A11.61,11.61,0,0,1,189.87,0h40.18a44.86,44.86,0,1,0,89.72,0H360a11.59,11.59,0,0,1,11.56,11.56v5.62q-13,121.68-6.21,229.55H350.4V266h16.28q1,12.24,2.23,24.31H358.4v-5.94H339.68V293H330v-8.2H296.47v10.77h-5.2v-7.31h-16v6.59H263.38V282H245.2v12.83h-18V284.14H211.58v9.54H195.73v-9.61Zm-21.45-.52h13.67v13.67H160.08V283.55Zm117.36,6.92v11.62h11.62V290.47ZM433,289.93h13.8v13.8H433v-13.8Zm-219.24-3.57v11.22H225V286.36Zm215.59-20.6h10.95V276.7H429.38V265.76Zm-246.56-28.5v8.83h8.84v-8.83ZM117,360.9h27.46v27.45H117V360.9ZM81.15,332h23.12v23.12H81.15V332Zm62.72-11.33h19.47v19.47H143.87V320.7ZM219.79,382h24.82v24.81H219.79V382ZM334.22,319h23.12v23.13H334.22V319Zm-158.45-5.46h19.47V333H175.77V313.55Zm36,20.84h16.4v16.4h-16.4v-16.4Zm114.48,24.55h23.12v23.12H326.25V358.94Zm-167.93-7.5h19.47v19.47H158.32V351.44ZM282,383h16.39v16.39H282V383Zm-16.83-23.88h13.81V373H265.12V359.14Zm-25.8.23H251V371H239.32V359.37ZM197,369.13h9.79v9.79H197v-9.79Zm88-44.56h32.61v32.61H285V324.57Zm137-10H449.4V342H421.94V314.56Zm-28.62,26.88h19.47v19.47H393.32V341.44ZM369,334.26h13.81v13.8H369v-13.8Zm-50.2,56.95h11.63v11.63H318.75V391.21Zm50.49-8H383V397h-13.8v-13.8Zm33.95-12.1h23.13v23.12H403.19V371.07Zm-4.63-53.69h13.8v13.81h-13.8V317.38Zm-31.9,39.33h17.21v17.2H366.66v-17.2ZM434,355h13.8v13.8H434V355ZM179.17,384.74H193v13.81H179.17V384.74Zm-61.64-53.06h13.81v13.81H117.53V331.68Zm70.3,11.52H201v13.19H187.83V343.2Zm27.45,15.94h13.81V373H215.28V359.14Zm44.28,32h11.63v11.63H259.56V391.12Zm40.71-28H311.9v11.63H300.27V363.09Zm41.55-76.62v14.45h14.45V286.47Zm-94.15-2v13.24h13.24V284.48Zm128.06,19.66h14.48v14.48H375.73V304.14Zm-.45-31.1h10.38v10.38H375.28V273Zm-22.45-23.88v14.38h14.38V249.16Zm50.48,32.18h17.82v17.81H403.31V281.34Zm-103.83,6.47v27.46h27.46V287.81ZM240.85,308h32.61v32.61H240.85V308Zm-32.07-1.32H223v14.19H208.78V306.66Zm-28.19-20.34v12.89h12.89V286.32Zm-40.4,5.53h13.67v13.67H140.19V291.85ZM88.36,298.5h13.8v13.81H88.36V298.5Zm22,1.19h16.39v16.4H110.33v-16.4Zm-9.5-48.78H132V282.1H100.83V250.91Zm41,33.8H157.9v-3.45h17.4c5.88-61.51,6.41-123.62,3-185.39l-8.5,4.91-2.69-4.65,10.85-6.27c-.23-3.73-.47-7.47-.72-11.2a283.38,283.38,0,0,0-24.28-27.2c-5.4-5.28-19.31-22.56-27.55-17.8L96.93,50.07A36.65,36.65,0,0,1,33.45,86.73L5,103.14c-9.61,5.56-3.4,12.85,2.1,17.52a346.38,346.38,0,0,1,42.61,43.22l13-7.49L65.38,161,53.16,168.1A347.25,347.25,0,0,1,101,247.8h34.1v39.91h6.65v-3Zm233.57,4.93h6.94v-2.22h17.84l.53-.09v-8.64h23.12v2h13.38v-1.85h-9.89V263.65h15.16a346.8,346.8,0,0,1,54.23-95.55L484.44,161l2.68-4.65,13,7.49a346.38,346.38,0,0,1,42.61-43.22c5.5-4.67,11.71-12,2.09-17.52L516.37,86.73a36.65,36.65,0,0,1-63.48-36.66L424.45,33.66c-8.24-4.76-22.15,12.52-27.55,17.8a282,282,0,0,0-24.28,27.2c-.26,3.73-.49,7.47-.72,11.2l10.85,6.27-2.69,4.65-8.51-4.91c-3.25,58.23-3,116.76,2,174.81H388v15.1H375v3.86Zm5.6-36.38h11.62v11.62H381V253.26Zm26.76,5.57h11.62v11.63H407.71V258.83ZM251.38,255V266.6H263V255Zm18-22v13.81h13.81V233Zm5.93,31.12v11.63H286.9V264.12Zm31.58.06V278h13.81V264.18Zm-3.84-25v16.39h16.4V239.15Zm28.61,26.12V276.9h11.63V265.27Zm1-27.84v11.63h11.62V237.43Zm-128.41,5.33v32.61h32.6V242.76Zm-77.3-10.58h9.79V242h-9.79v-9.79Zm25,3.18h11.63V247H152V235.36Zm-10.44,26.05h11.63V273H141.51V261.41Zm21.26-5.15H174.4v11.62H162.77V256.26ZM274.91,91.74H262.32v6.57H287.5V91.74Zm47.13,0H296.86v6.57H322V91.74Zm34.54,0H331.4v6.57h25.18V91.74Zm50.6,18.5-2.68,4.65L386.68,104.6l2.68-4.65,17.82,10.29Zm24.44,14.1L428.94,129l-17.82-10.29,2.68-4.65,17.82,10.28Zm24.44,14.12-2.68,4.65-17.82-10.29,2.68-4.66,17.82,10.3Zm24.44,14.1-2.68,4.66L460,146.93l2.68-4.65,17.82,10.28ZM142.63,110.24,160.45,100l2.69,4.65-17.82,10.29-2.69-4.65Zm-24.43,14.1L136,114.06l2.69,4.65L120.88,129l-2.68-4.66ZM93.75,138.46l17.82-10.3,2.69,4.66L96.44,143.11l-2.69-4.65Zm-24.43,14.1,17.81-10.28,2.69,4.65L72,157.22l-2.68-4.66ZM227.78,91.74v6.57H253V91.74Zm-34.54,0v6.57h25.18V91.74Z" style="fill: none;clip-rule: evenodd"/>
    </clipPath>
  </defs>
  <g id="b5700ae3-ca4e-4ed0-b5b4-216b31fdeb59" data-name="Layer 2">
    <g id="bcaee5d8-8460-4224-a497-4b0fa21c1db4" data-name="Layer 1">
      <g style="clip-path: url(#b296ac47-a2ba-4fc0-a086-574f4d12b676)">
        <polygon points="0.7 403.07 0.61 403.24 456.31 657.41 456.4 657.25 0.7 403.07" style="fill: #5db654;fill-rule: evenodd"/>
        <rect x="131.47" y="136.07" width="3.74" height="521.8" transform="translate(-182.86 452.77) rotate(-60.84)" style="fill: #5eb653"/>
        <rect x="132.69" y="133.89" width="3.74" height="521.8" transform="translate(-180.37 452.92) rotate(-60.86)" style="fill: #5eb652"/>
        <rect x="133.9" y="131.71" width="3.74" height="521.8" transform="translate(-177.83 452.75) rotate(-60.85)" style="fill: #5fb751"/>
        <rect x="135.12" y="129.53" width="3.74" height="521.8" transform="translate(-175.3 452.7) rotate(-60.85)" style="fill: #60b751"/>
        <rect x="136.34" y="127.35" width="3.74" height="521.8" transform="translate(-172.76 452.58) rotate(-60.84)" style="fill: #60b750"/>
        <rect x="137.55" y="125.17" width="3.74" height="521.8" transform="translate(-170.25 452.59) rotate(-60.85)" style="fill: #61b74f"/>
        <rect x="138.77" y="123" width="3.74" height="521.79" transform="translate(-167.73 452.58) rotate(-60.86)" style="fill: #61b84e"/>
        <rect x="139.98" y="120.82" width="3.74" height="521.79" transform="translate(-165.18 452.41) rotate(-60.84)" style="fill: #62b84e"/>
        <rect x="141.2" y="118.64" width="3.74" height="521.8" transform="translate(-162.67 452.49) rotate(-60.86)" style="fill: #63b84d"/>
        <rect x="142.41" y="116.46" width="3.74" height="521.8" transform="translate(-160.13 452.3) rotate(-60.84)" style="fill: #63b84c"/>
        <rect x="143.63" y="114.28" width="3.74" height="521.8" transform="translate(-157.61 452.31) rotate(-60.85)" style="fill: #64b94b"/>
        <rect x="144.85" y="112.1" width="3.74" height="521.79" transform="translate(-155.09 452.3) rotate(-60.86)" style="fill: #64b94b"/>
        <rect x="146.06" y="109.92" width="3.74" height="521.8" transform="translate(-152.54 452.11) rotate(-60.84)" style="fill: #65b94a"/>
        <rect x="147.28" y="107.74" width="3.74" height="521.8" transform="translate(-150.03 452.12) rotate(-60.85)" style="fill: #66b949"/>
        <rect x="148.49" y="105.56" width="3.74" height="521.8" transform="translate(-147.5 452.06) rotate(-60.85)" style="fill: #66ba49"/>
        <rect x="149.71" y="103.38" width="3.74" height="521.8" transform="translate(-144.97 452.01) rotate(-60.85)" style="fill: #67ba48"/>
        <rect x="150.93" y="101.2" width="3.74" height="521.8" transform="translate(-142.45 452) rotate(-60.85)" style="fill: #67ba47"/>
        <rect x="152.14" y="99.02" width="3.74" height="521.8" transform="translate(-139.91 451.83) rotate(-60.84)" style="fill: #68ba46"/>
        <rect x="153.36" y="96.84" width="3.74" height="521.8" transform="translate(-137.39 451.84) rotate(-60.85)" style="fill: #69bb46"/>
        <rect x="154.57" y="94.66" width="3.74" height="521.79" transform="translate(-134.86 451.72) rotate(-60.84)" style="fill: #69bb45"/>
        <rect x="155.79" y="92.48" width="3.74" height="521.8" transform="translate(-132.34 451.79) rotate(-60.86)" style="fill: #6abb44"/>
        <rect x="157" y="90.3" width="3.74" height="521.8" transform="translate(-129.81 451.67) rotate(-60.85)" style="fill: #6bbb43"/>
        <rect x="158.22" y="88.12" width="3.74" height="521.8" transform="translate(-127.29 451.65) rotate(-60.85)" style="fill: #6bbc43"/>
        <rect x="159.44" y="85.94" width="3.74" height="521.8" transform="translate(-124.76 451.58) rotate(-60.85)" style="fill: #6cbc42"/>
        <rect x="160.65" y="83.76" width="3.74" height="521.8" transform="translate(-122.23 451.46) rotate(-60.84)" style="fill: #6cbc41"/>
        <rect x="161.87" y="81.58" width="3.74" height="521.8" transform="translate(-119.7 451.47) rotate(-60.85)" style="fill: #6dbc40"/>
        <rect x="163.08" y="79.4" width="3.74" height="521.8" transform="translate(-117.18 451.4) rotate(-60.85)" style="fill: #6ebd40"/>
        <rect x="164.3" y="77.22" width="3.74" height="521.8" transform="translate(-114.65 451.44) rotate(-60.86)" style="fill: #6ebd3f"/>
        <rect x="165.51" y="75.04" width="3.74" height="521.8" transform="translate(-112.12 451.3) rotate(-60.85)" style="fill: #6fbd3e"/>
        <rect x="166.73" y="72.86" width="3.74" height="521.8" transform="translate(-109.59 451.18) rotate(-60.84)" style="fill: #6fbd3e"/>
        <rect x="167.95" y="70.68" width="3.74" height="521.8" transform="translate(-107.07 451.19) rotate(-60.85)" style="fill: #70be3d"/>
        <rect x="169.16" y="68.5" width="3.74" height="521.79" transform="translate(-104.54 451.07) rotate(-60.84)" style="fill: #71be3c"/>
        <rect x="170.38" y="66.32" width="3.74" height="521.8" transform="translate(-102.01 451.13) rotate(-60.86)" style="fill: #71be3b"/>
        <rect x="171.59" y="64.14" width="3.74" height="521.79" transform="translate(-99.49 451.08) rotate(-60.86)" style="fill: #72be3b"/>
        <rect x="172.81" y="61.96" width="3.74" height="521.8" transform="translate(-96.96 450.9) rotate(-60.84)" style="fill: #73bf3a"/>
        <rect x="174.02" y="59.79" width="3.74" height="521.8" transform="translate(-94.43 450.91) rotate(-60.85)" style="fill: #73bf39"/>
        <rect x="175.24" y="57.61" width="3.74" height="521.8" transform="translate(-91.9 450.77) rotate(-60.84)" style="fill: #74bf38"/>
        <rect x="176.46" y="55.43" width="3.74" height="521.8" transform="translate(-89.38 450.77) rotate(-60.85)" style="fill: #74bf38"/>
        <rect x="177.67" y="53.25" width="3.74" height="521.8" transform="translate(-86.85 450.66) rotate(-60.84)" style="fill: #75c037"/>
        <rect x="178.89" y="51.07" width="3.74" height="521.8" transform="translate(-84.32 450.75) rotate(-60.86)" style="fill: #76c036"/>
        <rect x="180.1" y="48.89" width="3.74" height="521.79" transform="translate(-81.8 450.61) rotate(-60.85)" style="fill: #76c035"/>
        <rect x="181.32" y="46.71" width="3.74" height="521.8" transform="translate(-79.27 450.49) rotate(-60.84)" style="fill: #77c035"/>
        <rect x="182.53" y="44.53" width="3.74" height="521.8" transform="translate(-76.74 450.49) rotate(-60.85)" style="fill: #77c134"/>
        <rect x="183.75" y="42.35" width="3.74" height="521.8" transform="translate(-74.22 450.38) rotate(-60.84)" style="fill: #78c133"/>
        <rect x="184.97" y="40.17" width="3.74" height="521.79" transform="translate(-71.69 450.43) rotate(-60.86)" style="fill: #79c133"/>
        <rect x="186.18" y="37.99" width="3.74" height="521.79" transform="translate(-69.16 450.38) rotate(-60.86)" style="fill: #79c132"/>
        <rect x="187.4" y="35.81" width="3.74" height="521.8" transform="translate(-66.64 450.23) rotate(-60.84)" style="fill: #7ac231"/>
        <rect x="188.61" y="33.63" width="3.74" height="521.8" transform="translate(-64.11 450.23) rotate(-60.85)" style="fill: #7bc230"/>
        <rect x="189.83" y="31.45" width="3.74" height="521.8" transform="translate(-61.58 450.12) rotate(-60.84)" style="fill: #7bc230"/>
        <rect x="191.04" y="29.27" width="3.74" height="521.8" transform="translate(-59.05 450.15) rotate(-60.86)" style="fill: #7cc22f"/>
        <rect x="192.26" y="27.09" width="3.74" height="521.79" transform="translate(-56.52 450.07) rotate(-60.85)" style="fill: #7cc32e"/>
        <rect x="193.48" y="24.91" width="3.74" height="521.8" transform="translate(-54 450) rotate(-60.85)" style="fill: #7dc32d"/>
        <rect x="194.69" y="22.73" width="3.74" height="521.8" transform="translate(-51.47 450) rotate(-60.86)" style="fill: #7ec32d"/>
        <rect x="195.91" y="20.55" width="3.74" height="521.8" transform="translate(-48.95 449.84) rotate(-60.84)" style="fill: #7ec32c"/>
        <rect x="197.12" y="18.37" width="3.74" height="521.8" transform="translate(-46.41 449.87) rotate(-60.86)" style="fill: #7fc42b"/>
        <rect x="198.34" y="16.19" width="3.74" height="521.8" transform="translate(-43.9 449.7) rotate(-60.84)" style="fill: #7fc42a"/>
        <rect x="199.55" y="14.01" width="3.74" height="521.8" transform="translate(-41.36 449.76) rotate(-60.86)" style="fill: #80c42a"/>
        <rect x="200.77" y="11.83" width="3.74" height="521.79" transform="translate(-38.83 449.7) rotate(-60.86)" style="fill: #81c429"/>
        <rect x="201.99" y="9.65" width="3.74" height="521.8" transform="translate(-36.31 449.59) rotate(-60.85)" style="fill: #81c528"/>
        <rect x="203.2" y="7.47" width="3.74" height="521.8" transform="translate(-33.78 449.57) rotate(-60.85)" style="fill: #82c527"/>
        <rect x="204.42" y="5.29" width="3.74" height="521.8" transform="translate(-31.27 449.4) rotate(-60.83)" style="fill: #82c527"/>
        <rect x="205.63" y="3.11" width="3.74" height="521.8" transform="translate(-28.72 449.46) rotate(-60.85)" style="fill: #83c526"/>
        <rect x="206.85" y="0.93" width="3.74" height="521.79" transform="translate(-26.2 449.37) rotate(-60.85)" style="fill: #84c625"/>
        <rect x="208.06" y="-1.24" width="3.74" height="521.79" transform="translate(-23.68 449.26) rotate(-60.84)" style="fill: #84c625"/>
        <rect x="209.28" y="-3.42" width="3.74" height="521.8" transform="translate(-21.13 449.34) rotate(-60.86)" style="fill: #85c624"/>
        <rect x="210.5" y="-5.6" width="3.74" height="521.8" transform="translate(-18.63 449.12) rotate(-60.83)" style="fill: #86c623"/>
        <rect x="211.71" y="-7.78" width="3.74" height="521.8" transform="translate(-16.09 449.18) rotate(-60.85)" style="fill: #86c722"/>
        <rect x="212.93" y="-9.96" width="3.74" height="521.79" transform="translate(-13.56 449.11) rotate(-60.85)" style="fill: #87c722"/>
        <rect x="214.14" y="-12.14" width="3.74" height="521.8" transform="translate(-11.05 449) rotate(-60.84)" style="fill: #87c721"/>
        <rect x="215.36" y="-14.32" width="3.74" height="521.8" transform="translate(-8.51 449) rotate(-60.85)" style="fill: #88c720"/>
        <rect x="216.57" y="-16.5" width="3.74" height="521.8" transform="translate(-5.98 448.93) rotate(-60.85)" style="fill: #89c81f"/>
        <rect x="217.79" y="-18.68" width="3.74" height="521.8" transform="translate(-3.45 448.91) rotate(-60.86)" style="fill: #89c81f"/>
        <rect x="219.01" y="-20.86" width="3.74" height="521.8" transform="translate(-0.95 448.75) rotate(-60.84)" style="fill: #8ac81e"/>
        <rect x="220.22" y="-23.04" width="3.74" height="521.8" transform="translate(1.61 448.8) rotate(-60.86)" style="fill: #8ac81d"/>
        <rect x="221.44" y="-25.22" width="3.74" height="521.79" transform="translate(4.13 448.72) rotate(-60.85)" style="fill: #8bc91c"/>
        <rect x="222.65" y="-27.4" width="3.74" height="521.8" transform="translate(6.64 448.61) rotate(-60.84)" style="fill: #8cc91c"/>
        <rect x="223.87" y="-29.58" width="3.74" height="521.8" transform="translate(9.2 448.67) rotate(-60.86)" style="fill: #8cc91b"/>
        <rect x="225.08" y="-31.76" width="3.74" height="521.8" transform="translate(11.69 448.47) rotate(-60.84)" style="fill: #8dc91a"/>
        <rect x="226.3" y="-33.94" width="3.74" height="521.8" transform="translate(14.24 448.52) rotate(-60.86)" style="fill: #8eca1a"/>
        <rect x="227.52" y="-36.12" width="3.74" height="521.79" transform="translate(16.76 448.44) rotate(-60.85)" style="fill: #8eca19"/>
        <rect x="228.73" y="-38.3" width="3.74" height="521.8" transform="translate(19.27 448.31) rotate(-60.84)" style="fill: #8fca18"/>
        <rect x="229.95" y="-40.48" width="3.74" height="521.79" transform="translate(21.82 448.34) rotate(-60.85)" style="fill: #8fca17"/>
        <rect x="231.16" y="-42.66" width="3.74" height="521.8" transform="translate(24.33 448.22) rotate(-60.84)" style="fill: #90cb17"/>
        <rect x="232.38" y="-44.84" width="3.74" height="521.8" transform="translate(26.89 448.27) rotate(-60.86)" style="fill: #91cb16"/>
        <rect x="233.59" y="-47.02" width="3.74" height="521.8" transform="translate(29.39 448.14) rotate(-60.85)" style="fill: #91cb15"/>
        <rect x="234.81" y="-49.2" width="3.74" height="521.8" transform="translate(31.9 448.03) rotate(-60.84)" style="fill: #92cb14"/>
        <rect x="236.03" y="-51.38" width="3.74" height="521.8" transform="translate(34.46 448.05) rotate(-60.85)" style="fill: #92cc14"/>
        <rect x="237.24" y="-53.56" width="3.74" height="521.79" transform="translate(36.95 447.89) rotate(-60.83)" style="fill: #93cc13"/>
        <rect x="238.46" y="-55.74" width="3.74" height="521.8" transform="translate(39.53 447.98) rotate(-60.86)" style="fill: #94cc12"/>
        <rect x="239.67" y="-57.92" width="3.74" height="521.79" transform="translate(42.05 447.9) rotate(-60.86)" style="fill: #94cc11"/>
        <rect x="240.89" y="-60.1" width="3.74" height="521.8" transform="translate(44.56 447.81) rotate(-60.85)" style="fill: #95cd11"/>
        <rect x="242.11" y="-62.28" width="3.74" height="521.8" transform="translate(47.1 447.78) rotate(-60.86)" style="fill: #95cd10"/>
        <rect x="243.32" y="-64.45" width="3.74" height="521.8" transform="translate(49.59 447.63) rotate(-60.84)" style="fill: #96cd0f"/>
        <rect x="244.54" y="-66.63" width="3.74" height="521.8" transform="translate(52.15 447.67) rotate(-60.86)" style="fill: #97cd0f"/>
        <rect x="245.75" y="-68.81" width="3.74" height="521.79" transform="translate(54.65 447.54) rotate(-60.84)" style="fill: #97ce0e"/>
        <rect x="246.97" y="-70.99" width="3.74" height="521.8" transform="translate(57.23 447.6) rotate(-60.86)" style="fill: #98ce0d"/>
        <rect x="248.18" y="-73.17" width="3.74" height="521.8" transform="translate(59.74 447.5) rotate(-60.86)" style="fill: #99ce0c"/>
        <rect x="249.4" y="-75.35" width="3.74" height="521.8" transform="translate(62.22 447.35) rotate(-60.84)" style="fill: #99ce0c"/>
        <rect x="250.61" y="-77.53" width="3.74" height="521.8" transform="translate(64.79 447.39) rotate(-60.86)" style="fill: #9acf0b"/>
        <rect x="251.83" y="-79.71" width="3.74" height="521.8" transform="translate(67.27 447.24) rotate(-60.84)" style="fill: #9acf0a"/>
        <rect x="253.05" y="-81.89" width="3.74" height="521.8" transform="translate(69.85 447.28) rotate(-60.86)" style="fill: #9bcf09"/>
        <rect x="254.26" y="-84.07" width="3.74" height="521.79" transform="translate(72.39 447.25) rotate(-60.86)" style="fill: #9ccf09"/>
        <rect x="255.48" y="-86.25" width="3.74" height="521.8" transform="translate(74.85 447.07) rotate(-60.84)" style="fill: #9cd008"/>
        <rect x="256.69" y="-88.43" width="3.74" height="521.8" transform="translate(77.43 447.11) rotate(-60.86)" style="fill: #9dd007"/>
        <rect x="257.91" y="-90.61" width="3.74" height="521.8" transform="translate(79.9 446.95) rotate(-60.83)" style="fill: #9ed008"/>
        <rect x="259.13" y="-92.79" width="3.74" height="521.8" transform="translate(82.48 446.99) rotate(-60.85)" style="fill: #9ed008"/>
        <rect x="260.34" y="-94.97" width="3.74" height="521.79" transform="translate(84.99 446.91) rotate(-60.85)" style="fill: #9fd109"/>
        <rect x="261.56" y="-97.15" width="3.74" height="521.8" transform="translate(87.54 446.89) rotate(-60.86)" style="fill: #a0d10a"/>
        <rect x="262.77" y="-99.33" width="3.74" height="521.8" transform="translate(90.08 446.86) rotate(-60.86)" style="fill: #a1d10b"/>
        <rect x="263.99" y="-101.51" width="3.74" height="521.8" transform="translate(92.53 446.67) rotate(-60.83)" style="fill: #a2d10b"/>
        <rect x="265.2" y="-103.69" width="3.74" height="521.8" transform="translate(95.11 446.71) rotate(-60.85)" style="fill: #a3d10c"/>
        <rect x="266.42" y="-105.87" width="3.74" height="521.8" transform="translate(97.6 446.58) rotate(-60.84)" style="fill: #a3d20d"/>
        <rect x="267.64" y="-108.05" width="3.74" height="521.8" transform="translate(100.16 446.58) rotate(-60.85)" style="fill: #a4d20d"/>
        <rect x="268.85" y="-110.23" width="3.74" height="521.79" transform="translate(102.72 446.57) rotate(-60.86)" style="fill: #a5d20e"/>
        <rect x="270.07" y="-112.41" width="3.74" height="521.8" transform="translate(105.2 446.44) rotate(-60.84)" style="fill: #a6d20f"/>
        <rect x="271.28" y="-114.59" width="3.74" height="521.8" transform="translate(107.76 446.44) rotate(-60.86)" style="fill: #a7d310"/>
        <rect x="272.5" y="-116.77" width="3.74" height="521.8" transform="translate(110.24 446.31) rotate(-60.84)" style="fill: #a7d310"/>
        <rect x="273.71" y="-118.95" width="3.74" height="521.8" transform="translate(112.8 446.3) rotate(-60.85)" style="fill: #a8d311"/>
        <rect x="274.93" y="-121.13" width="3.74" height="521.79" transform="translate(115.34 446.27) rotate(-60.86)" style="fill: #a9d312"/>
        <rect x="276.15" y="-123.31" width="3.74" height="521.79" transform="translate(117.81 446.12) rotate(-60.84)" style="fill: #aad313"/>
        <rect x="277.36" y="-125.48" width="3.74" height="521.8" transform="translate(120.42 446.19) rotate(-60.86)" style="fill: #abd413"/>
        <rect x="278.58" y="-127.66" width="3.74" height="521.8" transform="translate(122.87 446.03) rotate(-60.84)" style="fill: #acd414"/>
        <rect x="279.79" y="-129.84" width="3.74" height="521.8" transform="translate(125.43 446.02) rotate(-60.85)" style="fill: #acd415"/>
        <rect x="281.01" y="-132.02" width="3.74" height="521.79" transform="translate(127.97 445.98) rotate(-60.85)" style="fill: #add416"/>
        <rect x="282.22" y="-134.2" width="3.74" height="521.8" transform="translate(130.49 445.91) rotate(-60.85)" style="fill: #aed516"/>
        <rect x="283.44" y="-136.38" width="3.74" height="521.8" transform="translate(133.02 445.86) rotate(-60.85)" style="fill: #afd517"/>
        <rect x="284.66" y="-138.56" width="3.74" height="521.8" transform="translate(135.53 445.78) rotate(-60.85)" style="fill: #b0d518"/>
        <rect x="285.87" y="-140.74" width="3.74" height="521.8" transform="translate(138.06 445.73) rotate(-60.85)" style="fill: #b0d519"/>
        <rect x="287.09" y="-142.92" width="3.74" height="521.8" transform="translate(140.55 445.63) rotate(-60.84)" style="fill: #b1d519"/>
        <rect x="288.3" y="-145.1" width="3.74" height="521.8" transform="translate(143.11 445.61) rotate(-60.85)" style="fill: #b2d61a"/>
        <rect x="289.52" y="-147.28" width="3.74" height="521.79" transform="translate(145.66 445.58) rotate(-60.85)" style="fill: #b3d61b"/>
        <rect x="290.73" y="-149.46" width="3.74" height="521.79" transform="translate(148.13 445.46) rotate(-60.84)" style="fill: #b4d61c"/>
        <rect x="291.95" y="-151.64" width="3.74" height="521.8" transform="translate(150.74 445.5) rotate(-60.86)" style="fill: #b5d61c"/>
        <rect x="293.17" y="-153.82" width="3.74" height="521.8" transform="translate(153.19 445.35) rotate(-60.84)" style="fill: #b5d61d"/>
        <rect x="294.38" y="-156" width="3.74" height="521.8" transform="translate(155.75 445.33) rotate(-60.85)" style="fill: #b6d71e"/>
        <rect x="295.6" y="-158.18" width="3.74" height="521.8" transform="translate(158.31 445.31) rotate(-60.86)" style="fill: #b7d71f"/>
        <rect x="296.81" y="-160.36" width="3.74" height="521.8" transform="translate(160.76 445.17) rotate(-60.84)" style="fill: #b8d71f"/>
        <rect x="298.03" y="-162.54" width="3.74" height="521.8" transform="translate(163.36 445.2) rotate(-60.86)" style="fill: #b9d720"/>
        <rect x="299.24" y="-164.72" width="3.74" height="521.8" transform="translate(165.86 445.11) rotate(-60.85)" style="fill: #b9d821"/>
        <rect x="300.46" y="-166.9" width="3.74" height="521.8" transform="translate(168.42 445.09) rotate(-60.86)" style="fill: #bad821"/>
        <rect x="301.68" y="-169.08" width="3.74" height="521.79" transform="translate(170.94 445.03) rotate(-60.86)" style="fill: #bbd822"/>
        <rect x="302.89" y="-171.26" width="3.74" height="521.8" transform="translate(173.45 444.95) rotate(-60.85)" style="fill: #bcd823"/>
        <rect x="304.11" y="-173.44" width="3.74" height="521.8" transform="translate(176 444.92) rotate(-60.86)" style="fill: #bdd824"/>
        <rect x="305.32" y="-175.62" width="3.74" height="521.79" transform="translate(178.46 444.8) rotate(-60.84)" style="fill: #bed924"/>
        <rect x="306.54" y="-177.8" width="3.74" height="521.8" transform="translate(181.06 444.81) rotate(-60.86)" style="fill: #bed925"/>
        <rect x="307.75" y="-179.98" width="3.74" height="521.8" transform="translate(183.55 444.72) rotate(-60.85)" style="fill: #bfd926"/>
        <rect x="308.97" y="-182.16" width="3.74" height="521.8" transform="translate(186.08 444.67) rotate(-60.85)" style="fill: #c0d927"/>
        <rect x="310.19" y="-184.34" width="3.74" height="521.8" transform="translate(188.63 444.64) rotate(-60.86)" style="fill: #c1da27"/>
        <rect x="311.4" y="-186.52" width="3.74" height="521.8" transform="translate(191.08 444.51) rotate(-60.84)" style="fill: #c2da28"/>
        <rect x="312.62" y="-188.69" width="3.74" height="521.8" transform="translate(193.65 444.49) rotate(-60.85)" style="fill: #c2da29"/>
        <rect x="313.83" y="-190.87" width="3.74" height="521.79" transform="translate(196.14 444.4) rotate(-60.84)" style="fill: #c3da2a"/>
        <rect x="315.05" y="-193.05" width="3.74" height="521.8" transform="translate(198.74 444.41) rotate(-60.86)" style="fill: #c4da2a"/>
        <rect x="316.26" y="-195.23" width="3.74" height="521.8" transform="translate(201.26 444.34) rotate(-60.85)" style="fill: #c5db2b"/>
        <rect x="317.48" y="-197.41" width="3.74" height="521.8" transform="translate(203.72 444.23) rotate(-60.84)" style="fill: #c6db2c"/>
        <rect x="318.7" y="-199.59" width="3.74" height="521.8" transform="translate(206.29 444.21) rotate(-60.85)" style="fill: #c7db2d"/>
        <rect x="319.91" y="-201.77" width="3.74" height="521.8" transform="translate(208.77 444.12) rotate(-60.84)" style="fill: #c7db2d"/>
        <rect x="321.13" y="-203.95" width="3.74" height="521.8" transform="translate(211.36 444.11) rotate(-60.85)" style="fill: #c8db2e"/>
        <rect x="322.34" y="-206.13" width="3.74" height="521.79" transform="translate(213.93 444.09) rotate(-60.86)" style="fill: #c9dc2f"/>
        <rect x="323.56" y="-208.31" width="3.74" height="521.8" transform="translate(216.42 444) rotate(-60.85)" style="fill: #cadc30"/>
        <rect x="324.77" y="-210.49" width="3.74" height="521.8" transform="translate(218.93 443.94) rotate(-60.85)" style="fill: #cbdc30"/>
        <rect x="325.99" y="-212.67" width="3.74" height="521.8" transform="translate(221.42 443.85) rotate(-60.84)" style="fill: #cbdc31"/>
        <rect x="327.21" y="-214.85" width="3.74" height="521.8" transform="translate(223.99 443.83) rotate(-60.85)" style="fill: #ccdd32"/>
        <rect x="328.42" y="-217.03" width="3.74" height="521.8" transform="translate(226.47 443.73) rotate(-60.84)" style="fill: #cddd33"/>
        <rect x="329.64" y="-219.21" width="3.74" height="521.8" transform="translate(229.11 443.76) rotate(-60.86)" style="fill: #cedd33"/>
        <rect x="330.85" y="-221.39" width="3.74" height="521.79" transform="translate(231.61 443.69) rotate(-60.86)" style="fill: #cfdd34"/>
        <rect x="332.07" y="-223.57" width="3.74" height="521.8" transform="translate(234.05 443.57) rotate(-60.84)" style="fill: #d0dd35"/>
        <rect x="333.28" y="-225.75" width="3.74" height="521.8" transform="translate(236.63 443.55) rotate(-60.85)" style="fill: #d0de35"/>
        <rect x="334.5" y="-227.93" width="3.74" height="521.8" transform="translate(239.1 443.46) rotate(-60.84)" style="fill: #d1de36"/>
        <rect x="335.72" y="-230.11" width="3.74" height="521.79" transform="translate(241.7 443.45) rotate(-60.85)" style="fill: #d2de37"/>
        <rect x="336.93" y="-232.29" width="3.74" height="521.79" transform="translate(244.26 443.41) rotate(-60.86)" style="fill: #d3de38"/>
        <rect x="338.15" y="-234.47" width="3.74" height="521.8" transform="translate(246.71 443.31) rotate(-60.85)" style="fill: #d4df38"/>
        <rect x="339.36" y="-236.65" width="3.74" height="521.8" transform="translate(249.26 443.26) rotate(-60.85)" style="fill: #d4df39"/>
        <rect x="340.58" y="-238.83" width="3.74" height="521.8" transform="translate(251.73 443.17) rotate(-60.84)" style="fill: #d5df3a"/>
        <rect x="341.79" y="-241.01" width="3.74" height="521.8" transform="translate(254.3 443.14) rotate(-60.85)" style="fill: #d6df3b"/>
        <rect x="343.01" y="-243.19" width="3.74" height="521.79" transform="translate(256.86 443.1) rotate(-60.85)" style="fill: #d7df3b"/>
        <rect x="344.23" y="-245.37" width="3.74" height="521.8" transform="translate(259.38 443.05) rotate(-60.85)" style="fill: #d8e03c"/>
        <rect x="345.44" y="-247.55" width="3.74" height="521.8" transform="translate(261.93 443) rotate(-60.86)" style="fill: #d9e03d"/>
        <rect x="346.66" y="-249.73" width="3.74" height="521.8" transform="translate(264.36 442.89) rotate(-60.84)" style="fill: #d9e03e"/>
        <rect x="347.87" y="-251.9" width="3.74" height="521.8" transform="translate(266.94 442.86) rotate(-60.85)" style="fill: #dae03e"/>
        <rect x="349.09" y="-254.08" width="3.74" height="521.8" transform="translate(269.41 442.77) rotate(-60.84)" style="fill: #dbe13f"/>
        <rect x="350.3" y="-256.26" width="3.74" height="521.8" transform="translate(272.03 442.77) rotate(-60.86)" style="fill: #dce140"/>
        <rect x="351.52" y="-258.44" width="3.74" height="521.79" transform="translate(274.54 442.7) rotate(-60.85)" style="fill: #dde141"/>
        <rect x="352.74" y="-260.62" width="3.74" height="521.8" transform="translate(277.05 442.64) rotate(-60.85)" style="fill: #dee141"/>
        <rect x="353.95" y="-262.8" width="3.74" height="521.8" transform="translate(279.59 442.59) rotate(-60.85)" style="fill: #dee142"/>
        <rect x="355.17" y="-264.98" width="3.74" height="521.8" transform="translate(282.05 442.5) rotate(-60.84)" style="fill: #dfe243"/>
        <rect x="357.26" y="-265.67" width="0.32" height="521.8" transform="translate(283.07 442.6) rotate(-60.88)" style="fill: #e0e244"/>
      </g>
      <g>
        <text transform="translate(719.6 379.76)" style="font-size: 225.4832305908203px;fill: #313131;font-family: ClassicoBold, Classico">D<tspan x="156.03" y="0" style="letter-spacing: -0.02598585706195103em">o</tspan><tspan x="278.47" y="0" style="letter-spacing: 0.000002165488088495919em">t</tspan><tspan x="359.19" y="0" style="fill!: #000"> </tspan><tspan x="407.89" y="0" style="fill: #8dc91a;letter-spacing: 0.000002165488088495919em">G</tspan><tspan x="559.64" y="0" style="fill: #8dc91a;letter-spacing: -0.036990867527687286em">r</tspan><tspan x="626.61" y="0" style="fill: #8dc91a;letter-spacing: 0.000004330976176991838em">een</tspan></text>
        <text transform="translate(996.59 465.89)" style="font-size: 72px;font-family: Montserrat-Light, Montserrat;font-weight: 300"><tspan style="letter-spacing: -0.013990614149305556em">T</tspan><tspan x="39.53" y="0">i</tspan><tspan x="58.32" y="0" style="letter-spacing: -0.008992513020833334em">c</tspan><tspan x="97.63" y="0" style="letter-spacing: -0.02099609375em">k</tspan><tspan x="138.46" y="0" style="letter-spacing: 0.000006781684027777777em">et B</tspan><tspan x="282.74" y="0" style="letter-spacing: -0.018995496961805556em">o</tspan><tspan x="326.01" y="0">x</tspan></text>
      </g>
    </g>
  </g>
</svg>
