<svg xmlns="http://www.w3.org/2000/svg" xmlns:xlink="http://www.w3.org/1999/xlink" viewBox="0 0 1006.29 1018.31">
  <defs>
    <clipPath id="b5d26928-1468-47f7-95af-c025a9e45e7a" transform="translate(58.35 184.56)">
      <path d="M326.51,394.76q2.36-24.27,4-49.06H344.3V326H331.64q7.47-142.5-9.62-302.11v-7.8A16.13,16.13,0,0,1,338.09,0h55.84A62.34,62.34,0,0,0,518.61,0h55.84a16.13,16.13,0,0,1,16.07,16.07v7.8q-18.1,169.09-8.64,319H561.17v26.74H583.8q1.37,17,3.1,33.78H572.3v-8.26h-26v12H532.77V395.77H486.23v15H479V400.58H456.72v9.16H440.25V391.9H415v17.84H390V394.85H368.26v13.26h-22V394.76ZM296.69,394h19v19h-19V394Zm163.09,9.61V419.8h16.16V403.65ZM676,402.9h19.19v19.18H676V402.9Zm-304.66-5v15.6h15.59v-15.6Zm299.59-28.62h15.21v15.21H670.93V369.31ZM328.3,329.7V342h12.28V329.7ZM236.83,501.52H275v38.15H236.83V501.52ZM187,461.41h32.13v32.13H187V461.41Zm87.17-15.75h27.05v27.06H274.18V445.66Zm105.49,85.12h34.49v34.49H379.67V530.78Zm159-87.46h32.13v32.13H538.69V443.32Zm-220.19-7.6h27.06v27.06H318.5V435.72Zm50,29h22.78v22.78H368.53V464.69ZM527.62,498.8h32.13v32.13H527.62V498.8ZM294.25,488.37h27.06v27.06H294.25V488.37Zm171.8,43.89h22.78V555H466.05V532.26Zm-23.38-33.18h19.19v19.19H442.67V499.08Zm-35.85.32H423v16.16H406.82V499.4ZM348,513h13.61v13.6H348V513ZM470.25,451h45.32v45.31H470.25V451ZM660.6,437.13h38.15v38.15H660.6V437.13Zm-39.78,37.35h27.06v27H620.82v-27ZM587,464.5h19.18v19.18H587V464.5Zm-69.77,79.15h16.16v16.16H517.19V543.65Zm70.16-11.18h19.19v19.18H587.35V532.47Zm47.19-16.81h32.13v32.13H634.54V515.66Zm-6.44-74.61h19.18v19.18H628.1V441.05ZM583.78,495.7h23.9v23.91h-23.9V495.7Zm93.55-2.38h19.19V512.5H677.33V493.32Zm-354.1,41.34h19.19v19.18H323.23V534.66Zm-85.66-73.74h19.19v19.19H237.57V460.92Zm97.69,16h18.33v18.33H335.26V476.93Zm38.15,22.15H392.6v19.19H373.41V499.08ZM435,543.53H451.1v16.15H435V543.53Zm56.57-39h16.15v16.16H491.52V504.57ZM549.25,398.1v20.08h20.08V398.1Zm-130.83-2.77v18.4h18.4v-18.4Zm178,27.32H616.5v20.12H596.38V422.65Zm-.63-43.22h14.42v14.43H595.75V379.43Zm-31.2-33.18v20h20v-20ZM634.7,391h24.76v24.76H634.7V391Zm-144.28,9v38.16h38.16V400Zm-81.48,28h45.31V473.3H408.94V428Zm-44.57-1.83H384.1v19.72H364.37V426.15ZM325.2,397.89V415.8h17.91V397.89Zm-56.14,7.68h19v19h-19v-19Zm-72,9.24h19.18V434H197V414.81Zm30.53,1.65h22.78v22.79H227.56V416.46Zm-13.19-67.78H257.7V392H214.37V348.68Zm56.89,47h22.41v-4.79h24.18c8.17-85.48,8.91-171.79,4.12-257.64l-11.83,6.83-3.73-6.47,15.07-8.7q-.47-7.78-1-15.57a394.56,394.56,0,0,0-33.74-37.8c-7.51-7.34-26.84-31.35-38.29-24.73l-39.52,22.8a50.94,50.94,0,1,1-88.22,50.94L81.21,143.33c-13.36,7.72-4.73,17.85,2.91,24.35a482.44,482.44,0,0,1,59.22,60l18-10.41,3.73,6.47-17,9.81a482.48,482.48,0,0,1,66.52,110.76H262v55.46h9.24v-4.17Zm324.58,6.84h9.65v-3.08h24.8l.73-.12v-12h32.13V390h18.59v-2.57H668V366.38h21.06A482.21,482.21,0,0,1,764.42,233.6l-17-9.81,3.73-6.47,18,10.41a482.44,482.44,0,0,1,59.22-60c7.64-6.5,16.27-16.63,2.91-24.35l-39.51-22.81A50.94,50.94,0,1,1,703.6,69.58l-39.52-22.8c-11.45-6.62-30.78,17.39-38.29,24.73a394.56,394.56,0,0,0-33.74,37.8q-.52,7.78-1,15.57l15.07,8.7-3.73,6.47-11.83-6.83c-4.51,80.93-4.12,162.26,2.79,242.93h20.09v21H595.3v5.35Zm7.79-50.55h16.15v16.15H603.63V351.94Zm37.18,7.75H657v16.15H640.81V359.69Zm-217.24-5.37v16.16h16.15V354.32Zm25-30.53V343h19.18V323.79ZM456.78,367V383.2h16.15V367Zm43.88.08V386.3h19.19V367.12Zm-5.34-34.79v22.78h22.79V332.33Zm39.76,36.3v16.16h16.16V368.63ZM536.5,330v16.16h16.16V330Zm-178.44,7.41v45.31h45.31V337.36ZM250.65,322.65h13.6v13.6h-13.6v-13.6Zm34.75,4.42h16.16v16.16H285.4V327.07Zm-14.51,36.2h16.16v16.16H270.89V363.27Zm29.55-7.16H316.6v16.15H300.44V356.11ZM456.27,127.48h-17.5v9.14h35v-9.14Zm65.5,0h-35v9.14h35v-9.14Zm48,0h-35v9.14h35v-9.14Zm70.33,25.71-3.74,6.46-24.76-14.29,3.73-6.47,24.77,14.3Zm34,19.6-3.73,6.47L645.55,165l3.73-6.47,24.77,14.29Zm34,19.62-3.73,6.46-24.76-14.3,3.73-6.47L708,192.41ZM742,212l-3.73,6.47-24.76-14.3,3.73-6.47L742,212ZM272.45,153.19l24.77-14.3,3.73,6.47-24.76,14.29-3.74-6.46Zm-34,19.6,24.77-14.29L267,165l-24.77,14.29-3.73-6.47Zm-34,19.61,24.76-14.3,3.73,6.47-24.76,14.3-3.73-6.47Zm-34,19.61,24.76-14.3,3.73,6.47-24.76,14.3L170.57,212Zm220.2-84.53v9.14h35v-9.14Zm-48,0v9.14h35v-9.14Z" style="fill: none;clip-rule: evenodd"/>
    </clipPath>
  </defs>
  <g id="be310803-2f77-4255-aee6-b1a74c5ca054" data-name="Layer 2">
    <g id="bbe2ad62-6ab3-43d2-a2ef-bb4f989ce90e" data-name="Layer 1">
      <g style="clip-path: url(#b5d26928-1468-47f7-95af-c025a9e45e7a)">
        <polygon points="0.97 560.13 0.84 560.36 634.11 913.57 634.24 913.34 0.97 560.13" style="fill: #5db654;fill-rule: evenodd"/>
        <rect x="256.95" y="189.09" width="5.2" height="725.11" transform="translate(-290.29 694.03) rotate(-60.84)" style="fill: #5eb653"/>
        <rect x="258.63" y="186.06" width="5.2" height="725.11" transform="translate(-286.8 694.25) rotate(-60.86)" style="fill: #5eb652"/>
        <rect x="260.32" y="183.04" width="5.2" height="725.11" transform="translate(-283.28 694.01) rotate(-60.85)" style="fill: #5fb751"/>
        <rect x="262.01" y="180.01" width="5.2" height="725.11" transform="translate(-279.77 693.94) rotate(-60.85)" style="fill: #60b751"/>
        <rect x="263.7" y="176.98" width="5.2" height="725.11" transform="translate(-276.25 693.76) rotate(-60.84)" style="fill: #60b750"/>
        <rect x="265.39" y="173.95" width="5.2" height="725.11" transform="translate(-272.75 693.79) rotate(-60.85)" style="fill: #61b74f"/>
        <rect x="267.08" y="170.92" width="5.2" height="725.11" transform="translate(-269.24 693.77) rotate(-60.86)" style="fill: #61b84e"/>
        <rect x="268.77" y="167.89" width="5.2" height="725.11" transform="translate(-265.72 693.53) rotate(-60.84)" style="fill: #62b84e"/>
        <rect x="270.46" y="164.86" width="5.2" height="725.11" transform="translate(-262.21 693.64) rotate(-60.86)" style="fill: #63b84d"/>
        <rect x="272.15" y="161.83" width="5.2" height="725.11" transform="translate(-258.7 693.37) rotate(-60.84)" style="fill: #63b84c"/>
        <rect x="273.84" y="158.8" width="5.2" height="725.11" transform="translate(-255.19 693.4) rotate(-60.85)" style="fill: #64b94b"/>
        <rect x="275.53" y="155.78" width="5.2" height="725.11" transform="translate(-251.68 693.38) rotate(-60.86)" style="fill: #64b94b"/>
        <rect x="277.22" y="152.75" width="5.2" height="725.11" transform="translate(-248.16 693.11) rotate(-60.84)" style="fill: #65b94a"/>
        <rect x="278.91" y="149.72" width="5.2" height="725.11" transform="translate(-244.65 693.13) rotate(-60.85)" style="fill: #66b949"/>
        <rect x="280.6" y="146.69" width="5.2" height="725.11" transform="translate(-241.14 693.04) rotate(-60.85)" style="fill: #66ba49"/>
        <rect x="282.29" y="143.66" width="5.2" height="725.11" transform="translate(-237.63 692.98) rotate(-60.85)" style="fill: #67ba48"/>
        <rect x="283.98" y="140.63" width="5.2" height="725.11" transform="translate(-234.12 692.96) rotate(-60.85)" style="fill: #67ba47"/>
        <rect x="285.67" y="137.6" width="5.2" height="725.11" transform="translate(-230.61 692.72) rotate(-60.84)" style="fill: #68ba46"/>
        <rect x="287.36" y="134.57" width="5.2" height="725.11" transform="translate(-227.09 692.74) rotate(-60.85)" style="fill: #69bb46"/>
        <rect x="289.04" y="131.54" width="5.2" height="725.11" transform="translate(-223.58 692.57) rotate(-60.84)" style="fill: #69bb45"/>
        <rect x="290.73" y="128.51" width="5.2" height="725.11" transform="translate(-220.07 692.67) rotate(-60.86)" style="fill: #6abb44"/>
        <rect x="292.42" y="125.49" width="5.2" height="725.11" transform="translate(-216.56 692.5) rotate(-60.85)" style="fill: #6bbb43"/>
        <rect x="294.11" y="122.46" width="5.2" height="725.11" transform="translate(-213.04 692.48) rotate(-60.85)" style="fill: #6bbc43"/>
        <rect x="295.8" y="119.43" width="5.2" height="725.11" transform="translate(-209.53 692.38) rotate(-60.85)" style="fill: #6cbc42"/>
        <rect x="297.49" y="116.4" width="5.2" height="725.11" transform="translate(-206.03 692.21) rotate(-60.84)" style="fill: #6cbc41"/>
        <rect x="299.18" y="113.37" width="5.2" height="725.11" transform="translate(-202.51 692.23) rotate(-60.85)" style="fill: #6dbc40"/>
        <rect x="300.87" y="110.34" width="5.2" height="725.11" transform="translate(-199 692.13) rotate(-60.85)" style="fill: #6ebd40"/>
        <rect x="302.56" y="107.31" width="5.2" height="725.11" transform="translate(-195.48 692.2) rotate(-60.86)" style="fill: #6ebd3f"/>
        <rect x="304.25" y="104.28" width="5.2" height="725.11" transform="translate(-191.97 691.99) rotate(-60.85)" style="fill: #6fbd3e"/>
        <rect x="305.94" y="101.25" width="5.2" height="725.11" transform="translate(-188.47 691.82) rotate(-60.84)" style="fill: #6fbd3e"/>
        <rect x="307.63" y="98.23" width="5.2" height="725.11" transform="translate(-184.95 691.84) rotate(-60.85)" style="fill: #70be3d"/>
        <rect x="309.32" y="95.2" width="5.2" height="725.11" transform="translate(-181.45 691.67) rotate(-60.84)" style="fill: #71be3c"/>
        <rect x="311.01" y="92.17" width="5.2" height="725.11" transform="translate(-177.92 691.76) rotate(-60.86)" style="fill: #71be3b"/>
        <rect x="312.7" y="89.14" width="5.2" height="725.11" transform="translate(-174.4 691.69) rotate(-60.86)" style="fill: #72be3b"/>
        <rect x="314.39" y="86.11" width="5.2" height="725.11" transform="translate(-170.91 691.43) rotate(-60.84)" style="fill: #73bf3a"/>
        <rect x="316.08" y="83.08" width="5.2" height="725.11" transform="translate(-167.39 691.45) rotate(-60.85)" style="fill: #73bf39"/>
        <rect x="317.76" y="80.05" width="5.2" height="725.11" transform="translate(-163.89 691.25) rotate(-60.84)" style="fill: #74bf38"/>
        <rect x="319.45" y="77.02" width="5.2" height="725.11" transform="translate(-160.37 691.26) rotate(-60.85)" style="fill: #74bf38"/>
        <rect x="321.14" y="73.99" width="5.2" height="725.11" transform="translate(-156.87 691.09) rotate(-60.84)" style="fill: #75c037"/>
        <rect x="322.83" y="70.96" width="5.2" height="725.11" transform="translate(-153.33 691.23) rotate(-60.86)" style="fill: #76c036"/>
        <rect x="324.52" y="67.94" width="5.2" height="725.11" transform="translate(-149.83 691.03) rotate(-60.85)" style="fill: #76c035"/>
        <rect x="326.21" y="64.91" width="5.2" height="725.11" transform="translate(-146.34 690.86) rotate(-60.84)" style="fill: #77c035"/>
        <rect x="327.9" y="61.88" width="5.2" height="725.11" transform="translate(-142.81 690.87) rotate(-60.85)" style="fill: #77c134"/>
        <rect x="329.59" y="58.85" width="5.2" height="725.11" transform="translate(-139.31 690.7) rotate(-60.84)" style="fill: #78c133"/>
        <rect x="331.28" y="55.82" width="5.2" height="725.11" transform="translate(-135.78 690.79) rotate(-60.86)" style="fill: #79c133"/>
        <rect x="332.97" y="52.79" width="5.2" height="725.11" transform="translate(-132.26 690.71) rotate(-60.86)" style="fill: #79c132"/>
        <rect x="334.66" y="49.76" width="5.2" height="725.11" transform="translate(-128.77 690.5) rotate(-60.84)" style="fill: #7ac231"/>
        <rect x="336.35" y="46.73" width="5.2" height="725.11" transform="translate(-125.25 690.51) rotate(-60.85)" style="fill: #7bc230"/>
        <rect x="338.04" y="43.7" width="5.2" height="725.11" transform="translate(-121.75 690.34) rotate(-60.84)" style="fill: #7bc230"/>
        <rect x="339.73" y="40.68" width="5.2" height="725.11" transform="translate(-118.22 690.39) rotate(-60.86)" style="fill: #7cc22f"/>
        <rect x="341.42" y="37.65" width="5.2" height="725.11" transform="translate(-114.71 690.27) rotate(-60.85)" style="fill: #7cc32e"/>
        <rect x="343.11" y="34.62" width="5.2" height="725.11" transform="translate(-111.2 690.18) rotate(-60.85)" style="fill: #7dc32d"/>
        <rect x="344.8" y="31.59" width="5.2" height="725.11" transform="translate(-107.67 690.19) rotate(-60.86)" style="fill: #7ec32d"/>
        <rect x="346.49" y="28.56" width="5.2" height="725.11" transform="translate(-104.2 689.95) rotate(-60.84)" style="fill: #7ec32c"/>
        <rect x="348.18" y="25.53" width="5.2" height="725.11" transform="translate(-100.65 690) rotate(-60.86)" style="fill: #7fc42b"/>
        <rect x="349.86" y="22.5" width="5.2" height="725.11" transform="translate(-97.18 689.75) rotate(-60.84)" style="fill: #7fc42a"/>
        <rect x="351.55" y="19.47" width="5.2" height="725.11" transform="translate(-93.63 689.85) rotate(-60.86)" style="fill: #80c42a"/>
        <rect x="353.24" y="16.44" width="5.2" height="725.11" transform="translate(-90.12 689.77) rotate(-60.86)" style="fill: #81c429"/>
        <rect x="354.93" y="13.41" width="5.2" height="725.11" transform="translate(-86.63 689.61) rotate(-60.85)" style="fill: #81c528"/>
        <rect x="356.62" y="10.39" width="5.2" height="725.11" transform="translate(-83.1 689.58) rotate(-60.85)" style="fill: #82c527"/>
        <rect x="358.31" y="7.36" width="5.2" height="725.11" transform="translate(-79.63 689.34) rotate(-60.83)" style="fill: #82c527"/>
        <rect x="360" y="4.33" width="5.2" height="725.11" transform="translate(-76.08 689.43) rotate(-60.85)" style="fill: #83c526"/>
        <rect x="361.69" y="1.3" width="5.2" height="725.11" transform="translate(-72.58 689.31) rotate(-60.85)" style="fill: #84c625"/>
        <rect x="363.38" y="-1.73" width="5.2" height="725.11" transform="translate(-69.09 689.15) rotate(-60.84)" style="fill: #84c625"/>
        <rect x="365.07" y="-4.76" width="5.2" height="725.11" transform="translate(-65.52 689.27) rotate(-60.86)" style="fill: #85c624"/>
        <rect x="366.76" y="-7.79" width="5.2" height="725.11" transform="translate(-62.08 688.96) rotate(-60.83)" style="fill: #86c623"/>
        <rect x="368.45" y="-10.82" width="5.2" height="725.11" transform="translate(-58.52 689.04) rotate(-60.85)" style="fill: #86c722"/>
        <rect x="370.14" y="-13.85" width="5.2" height="725.11" transform="translate(-55.01 688.95) rotate(-60.85)" style="fill: #87c722"/>
        <rect x="371.83" y="-16.87" width="5.2" height="725.11" transform="translate(-51.53 688.78) rotate(-60.84)" style="fill: #87c721"/>
        <rect x="373.52" y="-19.9" width="5.2" height="725.11" transform="translate(-47.99 688.79) rotate(-60.85)" style="fill: #88c720"/>
        <rect x="375.21" y="-22.93" width="5.2" height="725.11" transform="translate(-44.48 688.7) rotate(-60.85)" style="fill: #89c81f"/>
        <rect x="376.9" y="-25.96" width="5.2" height="725.11" transform="translate(-40.95 688.67) rotate(-60.86)" style="fill: #89c81f"/>
        <rect x="378.58" y="-28.99" width="5.2" height="725.11" transform="translate(-37.49 688.43) rotate(-60.84)" style="fill: #8ac81e"/>
        <rect x="380.27" y="-32.02" width="5.2" height="725.11" transform="translate(-33.92 688.52) rotate(-60.86)" style="fill: #8ac81d"/>
        <rect x="381.96" y="-35.05" width="5.2" height="725.11" transform="translate(-30.43 688.4) rotate(-60.85)" style="fill: #8bc91c"/>
        <rect x="383.65" y="-38.08" width="5.2" height="725.11" transform="translate(-26.95 688.24) rotate(-60.84)" style="fill: #8cc91c"/>
        <rect x="385.34" y="-41.11" width="5.2" height="725.11" transform="translate(-23.36 688.35) rotate(-60.86)" style="fill: #8cc91b"/>
        <rect x="387.03" y="-44.14" width="5.2" height="725.11" transform="translate(-19.94 688.05) rotate(-60.84)" style="fill: #8dc91a"/>
        <rect x="388.72" y="-47.16" width="5.2" height="725.11" transform="translate(-16.36 688.13) rotate(-60.86)" style="fill: #8eca1a"/>
        <rect x="390.41" y="-50.19" width="5.2" height="725.11" transform="translate(-12.87 688.01) rotate(-60.85)" style="fill: #8eca19"/>
        <rect x="392.1" y="-53.22" width="5.2" height="725.11" transform="translate(-9.4 687.83) rotate(-60.84)" style="fill: #8fca18"/>
        <rect x="393.79" y="-56.25" width="5.2" height="725.11" transform="translate(-5.84 687.87) rotate(-60.85)" style="fill: #8fca17"/>
        <rect x="395.48" y="-59.28" width="5.2" height="725.11" transform="translate(-2.36 687.7) rotate(-60.84)" style="fill: #90cb17"/>
        <rect x="397.17" y="-62.31" width="5.2" height="725.11" transform="translate(1.22 687.78) rotate(-60.86)" style="fill: #91cb16"/>
        <rect x="398.86" y="-65.34" width="5.2" height="725.11" transform="translate(4.68 687.59) rotate(-60.85)" style="fill: #91cb15"/>
        <rect x="400.55" y="-68.37" width="5.2" height="725.11" transform="translate(8.16 687.44) rotate(-60.84)" style="fill: #92cb14"/>
        <rect x="402.24" y="-71.4" width="5.2" height="725.11" transform="translate(11.72 687.48) rotate(-60.85)" style="fill: #92cc14"/>
        <rect x="403.93" y="-74.42" width="5.2" height="725.11" transform="translate(15.16 687.24) rotate(-60.83)" style="fill: #93cc13"/>
        <rect x="405.62" y="-77.45" width="5.2" height="725.11" transform="translate(18.78 687.39) rotate(-60.86)" style="fill: #94cc12"/>
        <rect x="407.31" y="-80.48" width="5.2" height="725.11" transform="translate(22.27 687.27) rotate(-60.86)" style="fill: #94cc11"/>
        <rect x="409" y="-83.51" width="5.2" height="725.11" transform="translate(25.76 687.14) rotate(-60.85)" style="fill: #95cd11"/>
        <rect x="410.68" y="-86.54" width="5.2" height="725.11" transform="translate(29.29 687.11) rotate(-60.86)" style="fill: #95cd10"/>
        <rect x="412.37" y="-89.57" width="5.2" height="725.11" transform="translate(32.73 686.88) rotate(-60.84)" style="fill: #96cd0f"/>
        <rect x="414.06" y="-92.6" width="5.2" height="725.11" transform="translate(36.32 686.95) rotate(-60.86)" style="fill: #97cd0f"/>
        <rect x="415.75" y="-95.63" width="5.2" height="725.11" transform="translate(39.77 686.76) rotate(-60.84)" style="fill: #97ce0e"/>
        <rect x="417.44" y="-98.66" width="5.2" height="725.11" transform="translate(43.38 686.86) rotate(-60.86)" style="fill: #98ce0d"/>
        <rect x="419.13" y="-101.69" width="5.2" height="725.11" transform="translate(46.85 686.72) rotate(-60.86)" style="fill: #99ce0c"/>
        <rect x="420.82" y="-104.71" width="5.2" height="725.11" transform="translate(50.28 686.49) rotate(-60.84)" style="fill: #99ce0c"/>
        <rect x="422.51" y="-107.74" width="5.2" height="725.11" transform="translate(53.88 686.56) rotate(-60.86)" style="fill: #9acf0b"/>
        <rect x="424.2" y="-110.77" width="5.2" height="725.11" transform="translate(57.31 686.34) rotate(-60.84)" style="fill: #9acf0a"/>
        <rect x="425.89" y="-113.8" width="5.2" height="725.11" transform="translate(60.91 686.41) rotate(-60.86)" style="fill: #9bcf09"/>
        <rect x="427.58" y="-116.83" width="5.2" height="725.11" transform="translate(64.44 686.37) rotate(-60.86)" style="fill: #9ccf09"/>
        <rect x="429.27" y="-119.86" width="5.2" height="725.11" transform="translate(67.84 686.11) rotate(-60.84)" style="fill: #9cd008"/>
        <rect x="430.96" y="-122.89" width="5.2" height="725.11" transform="translate(71.44 686.17) rotate(-60.86)" style="fill: #9dd007"/>
        <rect x="432.65" y="-125.92" width="5.2" height="725.11" transform="translate(74.85 685.93) rotate(-60.83)" style="fill: #9ed008"/>
        <rect x="434.34" y="-128.95" width="5.2" height="725.11" transform="translate(78.46 686) rotate(-60.85)" style="fill: #9ed008"/>
        <rect x="436.03" y="-131.97" width="5.2" height="725.11" transform="translate(81.94 685.88) rotate(-60.85)" style="fill: #9fd109"/>
        <rect x="437.72" y="-135" width="5.2" height="725.11" transform="translate(85.49 685.86) rotate(-60.86)" style="fill: #a0d10a"/>
        <rect x="439.4" y="-138.03" width="5.2" height="725.11" transform="translate(89.03 685.82) rotate(-60.86)" style="fill: #a1d10b"/>
        <rect x="441.09" y="-141.06" width="5.2" height="725.11" transform="translate(92.4 685.54) rotate(-60.83)" style="fill: #a2d10b"/>
        <rect x="442.78" y="-144.09" width="5.2" height="725.11" transform="translate(96.02 685.61) rotate(-60.85)" style="fill: #a3d10c"/>
        <rect x="444.47" y="-147.12" width="5.2" height="725.11" transform="translate(99.45 685.42) rotate(-60.84)" style="fill: #a3d20d"/>
        <rect x="446.16" y="-150.15" width="5.2" height="725.11" transform="translate(103.02 685.43) rotate(-60.85)" style="fill: #a4d20d"/>
        <rect x="447.85" y="-153.18" width="5.2" height="725.11" transform="translate(106.59 685.43) rotate(-60.86)" style="fill: #a5d20e"/>
        <rect x="449.54" y="-156.21" width="5.2" height="725.11" transform="translate(110.01 685.23) rotate(-60.84)" style="fill: #a6d20f"/>
        <rect x="451.23" y="-159.24" width="5.2" height="725.11" transform="translate(113.59 685.24) rotate(-60.86)" style="fill: #a7d310"/>
        <rect x="452.92" y="-162.26" width="5.2" height="725.11" transform="translate(117.02 685.05) rotate(-60.84)" style="fill: #a7d310"/>
        <rect x="454.61" y="-165.29" width="5.2" height="725.11" transform="translate(120.58 685.04) rotate(-60.85)" style="fill: #a8d311"/>
        <rect x="456.3" y="-168.32" width="5.2" height="725.11" transform="translate(124.12 685) rotate(-60.86)" style="fill: #a9d312"/>
        <rect x="457.99" y="-171.35" width="5.2" height="725.11" transform="translate(127.53 684.79) rotate(-60.84)" style="fill: #aad313"/>
        <rect x="459.68" y="-174.38" width="5.2" height="725.11" transform="translate(131.19 684.9) rotate(-60.86)" style="fill: #abd413"/>
        <rect x="461.37" y="-177.41" width="5.2" height="725.11" transform="translate(134.58 684.66) rotate(-60.84)" style="fill: #acd414"/>
        <rect x="463.06" y="-180.44" width="5.2" height="725.11" transform="translate(138.14 684.65) rotate(-60.85)" style="fill: #acd415"/>
        <rect x="464.75" y="-183.47" width="5.2" height="725.11" transform="translate(141.68 684.6) rotate(-60.85)" style="fill: #add416"/>
        <rect x="466.44" y="-186.5" width="5.2" height="725.11" transform="translate(145.17 684.49) rotate(-60.85)" style="fill: #aed516"/>
        <rect x="468.13" y="-189.52" width="5.2" height="725.11" transform="translate(148.7 684.44) rotate(-60.85)" style="fill: #afd517"/>
        <rect x="469.81" y="-192.55" width="5.2" height="725.11" transform="translate(152.17 684.31) rotate(-60.85)" style="fill: #b0d518"/>
        <rect x="471.5" y="-195.58" width="5.2" height="725.11" transform="translate(155.69 684.24) rotate(-60.85)" style="fill: #b0d519"/>
        <rect x="473.19" y="-198.61" width="5.2" height="725.11" transform="translate(159.14 684.1) rotate(-60.84)" style="fill: #b1d519"/>
        <rect x="474.88" y="-201.64" width="5.2" height="725.11" transform="translate(162.71 684.08) rotate(-60.85)" style="fill: #b2d61a"/>
        <rect x="476.57" y="-204.67" width="5.2" height="725.11" transform="translate(166.26 684.04) rotate(-60.85)" style="fill: #b3d61b"/>
        <rect x="478.26" y="-207.7" width="5.2" height="725.11" transform="translate(169.68 683.87) rotate(-60.84)" style="fill: #b4d61c"/>
        <rect x="479.95" y="-210.73" width="5.2" height="725.11" transform="translate(173.33 683.94) rotate(-60.86)" style="fill: #b5d61c"/>
        <rect x="481.64" y="-213.76" width="5.2" height="725.11" transform="translate(176.7 683.71) rotate(-60.84)" style="fill: #b5d61d"/>
        <rect x="483.33" y="-216.79" width="5.2" height="725.11" transform="translate(180.27 683.69) rotate(-60.85)" style="fill: #b6d71e"/>
        <rect x="485.02" y="-219.81" width="5.2" height="725.11" transform="translate(183.83 683.67) rotate(-60.86)" style="fill: #b7d71f"/>
        <rect x="486.71" y="-222.84" width="5.2" height="725.11" transform="translate(187.22 683.47) rotate(-60.84)" style="fill: #b8d71f"/>
        <rect x="488.4" y="-225.87" width="5.2" height="725.11" transform="translate(190.85 683.51) rotate(-60.86)" style="fill: #b9d720"/>
        <rect x="490.09" y="-228.9" width="5.2" height="725.11" transform="translate(194.32 683.39) rotate(-60.85)" style="fill: #b9d821"/>
        <rect x="491.78" y="-231.93" width="5.2" height="725.11" transform="translate(197.89 683.37) rotate(-60.86)" style="fill: #bad821"/>
        <rect x="493.47" y="-234.96" width="5.2" height="725.11" transform="translate(201.39 683.28) rotate(-60.86)" style="fill: #bbd822"/>
        <rect x="495.16" y="-237.99" width="5.2" height="725.11" transform="translate(204.87 683.17) rotate(-60.85)" style="fill: #bcd823"/>
        <rect x="496.85" y="-241.02" width="5.2" height="725.11" transform="translate(208.42 683.12) rotate(-60.86)" style="fill: #bdd824"/>
        <rect x="498.54" y="-244.05" width="5.2" height="725.11" transform="translate(211.82 682.95) rotate(-60.84)" style="fill: #bed924"/>
        <rect x="500.22" y="-247.07" width="5.2" height="725.11" transform="translate(215.46 682.98) rotate(-60.86)" style="fill: #bed925"/>
        <rect x="501.91" y="-250.1" width="5.2" height="725.11" transform="translate(218.9 682.84) rotate(-60.85)" style="fill: #bfd926"/>
        <rect x="503.6" y="-253.13" width="5.2" height="725.11" transform="translate(222.43 682.77) rotate(-60.85)" style="fill: #c0d927"/>
        <rect x="505.29" y="-256.16" width="5.2" height="725.11" transform="translate(225.98 682.73) rotate(-60.86)" style="fill: #c1da27"/>
        <rect x="506.98" y="-259.19" width="5.2" height="725.11" transform="translate(229.36 682.54) rotate(-60.84)" style="fill: #c2da28"/>
        <rect x="508.67" y="-262.22" width="5.2" height="725.11" transform="translate(232.94 682.53) rotate(-60.85)" style="fill: #c2da29"/>
        <rect x="510.36" y="-265.25" width="5.2" height="725.11" transform="translate(236.39 682.39) rotate(-60.84)" style="fill: #c3da2a"/>
        <rect x="512.05" y="-268.28" width="5.2" height="725.11" transform="translate(240.02 682.42) rotate(-60.86)" style="fill: #c4da2a"/>
        <rect x="513.74" y="-271.31" width="5.2" height="725.11" transform="translate(243.52 682.32) rotate(-60.85)" style="fill: #c5db2b"/>
        <rect x="515.43" y="-274.34" width="5.2" height="725.11" transform="translate(246.92 682.15) rotate(-60.84)" style="fill: #c6db2c"/>
        <rect x="517.12" y="-277.36" width="5.2" height="725.11" transform="translate(250.5 682.13) rotate(-60.85)" style="fill: #c7db2d"/>
        <rect x="518.81" y="-280.39" width="5.2" height="725.11" transform="translate(253.94 682) rotate(-60.84)" style="fill: #c7db2d"/>
        <rect x="520.5" y="-283.42" width="5.2" height="725.11" transform="translate(257.55 681.99) rotate(-60.85)" style="fill: #c8db2e"/>
        <rect x="522.19" y="-286.45" width="5.2" height="725.11" transform="translate(261.14 681.98) rotate(-60.86)" style="fill: #c9dc2f"/>
        <rect x="523.88" y="-289.48" width="5.2" height="725.11" transform="translate(264.58 681.85) rotate(-60.85)" style="fill: #cadc30"/>
        <rect x="525.57" y="-292.51" width="5.2" height="725.11" transform="translate(268.08 681.76) rotate(-60.85)" style="fill: #cbdc30"/>
        <rect x="527.26" y="-295.54" width="5.2" height="725.11" transform="translate(271.52 681.63) rotate(-60.84)" style="fill: #cbdc31"/>
        <rect x="528.94" y="-298.57" width="5.2" height="725.11" transform="translate(275.11 681.6) rotate(-60.85)" style="fill: #ccdd32"/>
        <rect x="530.63" y="-301.6" width="5.2" height="725.11" transform="translate(278.54 681.47) rotate(-60.84)" style="fill: #cddd33"/>
        <rect x="532.32" y="-304.62" width="5.2" height="725.11" transform="translate(282.23 681.52) rotate(-60.86)" style="fill: #cedd33"/>
        <rect x="534.01" y="-307.65" width="5.2" height="725.11" transform="translate(285.7 681.41) rotate(-60.86)" style="fill: #cfdd34"/>
        <rect x="535.7" y="-310.68" width="5.2" height="725.11" transform="translate(289.08 681.24) rotate(-60.84)" style="fill: #d0dd35"/>
        <rect x="537.39" y="-313.71" width="5.2" height="725.11" transform="translate(292.66 681.21) rotate(-60.85)" style="fill: #d0de35"/>
        <rect x="539.08" y="-316.74" width="5.2" height="725.11" transform="translate(296.1 681.08) rotate(-60.84)" style="fill: #d1de36"/>
        <rect x="540.77" y="-319.77" width="5.2" height="725.11" transform="translate(299.72 681.08) rotate(-60.85)" style="fill: #d2de37"/>
        <rect x="542.46" y="-322.8" width="5.2" height="725.11" transform="translate(303.28 681.03) rotate(-60.86)" style="fill: #d3de38"/>
        <rect x="544.15" y="-325.83" width="5.2" height="725.11" transform="translate(306.68 680.88) rotate(-60.85)" style="fill: #d4df38"/>
        <rect x="545.84" y="-328.86" width="5.2" height="725.11" transform="translate(310.22 680.82) rotate(-60.85)" style="fill: #d4df39"/>
        <rect x="547.53" y="-331.89" width="5.2" height="725.11" transform="translate(313.63 680.68) rotate(-60.84)" style="fill: #d5df3a"/>
        <rect x="549.22" y="-334.91" width="5.2" height="725.11" transform="translate(317.22 680.65) rotate(-60.85)" style="fill: #d6df3b"/>
        <rect x="550.91" y="-337.94" width="5.2" height="725.11" transform="translate(320.78 680.6) rotate(-60.85)" style="fill: #d7df3b"/>
        <rect x="552.6" y="-340.97" width="5.2" height="725.11" transform="translate(324.29 680.52) rotate(-60.85)" style="fill: #d8e03c"/>
        <rect x="554.29" y="-344" width="5.2" height="725.11" transform="translate(327.83 680.46) rotate(-60.86)" style="fill: #d9e03d"/>
        <rect x="555.98" y="-347.03" width="5.2" height="725.11" transform="translate(331.19 680.29) rotate(-60.84)" style="fill: #d9e03e"/>
        <rect x="557.67" y="-350.06" width="5.2" height="725.11" transform="translate(334.78 680.26) rotate(-60.85)" style="fill: #dae03e"/>
        <rect x="559.35" y="-353.09" width="5.2" height="725.11" transform="translate(338.2 680.13) rotate(-60.84)" style="fill: #dbe13f"/>
        <rect x="561.04" y="-356.12" width="5.2" height="725.11" transform="translate(341.87 680.14) rotate(-60.86)" style="fill: #dce140"/>
        <rect x="562.73" y="-359.14" width="5.2" height="725.11" transform="translate(345.34 680.04) rotate(-60.85)" style="fill: #dde141"/>
        <rect x="564.42" y="-362.17" width="5.2" height="725.11" transform="translate(348.84 679.96) rotate(-60.85)" style="fill: #dee141"/>
        <rect x="566.11" y="-365.2" width="5.2" height="725.11" transform="translate(352.36 679.88) rotate(-60.85)" style="fill: #dee142"/>
        <rect x="567.8" y="-368.23" width="5.2" height="725.11" transform="translate(355.78 679.75) rotate(-60.84)" style="fill: #dfe243"/>
        <rect x="570.71" y="-369.18" width="0.45" height="725.11" transform="translate(357.24 679.92) rotate(-60.88)" style="fill: #e0e244"/>
      </g>
      <g>
        <g>
          <path d="M139.46,666.47c0,50.88-31.69,80.42-79.77,80.42H0v-157H61C109.06,589.93,139.46,617.32,139.46,666.47Zm-24.16,1.3c0-44.42-16.16-75.86-56.48-75.86H20.44V741.5a207.36,207.36,0,0,0,40.26,3.65C101.67,745.15,115.3,716.06,115.3,667.77Z" transform="translate(58.35 184.56)" style="fill: #313131"/>
          <path d="M268,689.86A59.14,59.14,0,1,1,250.69,648,58.81,58.81,0,0,1,268,689.86Zm-11.19,4.07c-1.17-13.79-7.7-27.26-18.39-37.94-12.21-12.22-27.47-18.48-41.87-18.48-11.76,0-18.88,4.16-27.39,12.68-18.94,18.94-11.83,48.45,10.38,70.66s50.05,27.65,69,8.71C257.67,720.42,258,707.76,256.81,693.93Z" transform="translate(58.35 184.56)" style="fill: #313131"/>
          <path d="M346.54,741.94c-8.19,4.75-16,8-26.09,8-25.44,0-33.83-20.7-33.83-28.45l-.14-83.73-17,5.56-1.6-8.88,17.46-.06,19.18-33.85h.85v33.85h39.89l-5.4,10.57-34.37-7.16-.11,82c0,6.68.2,27.5,20,27.5,5.17,0,11.86-3.79,19.41-7.88Z" transform="translate(58.35 184.56)" style="fill: #313131"/>
          <path d="M541.15,674v72.51H529.94V732.31a79.79,79.79,0,1,1,7.44-119.41c.92.92,1.82,1.87,2.67,2.82l-14,13.6c-.85-.93-1.72-1.82-2.59-2.7-30.57-30.57-71.26-39.27-97.9-12.62s-16.61,67.68,14,98.25c28.28,28.27,63.31,38.28,90.39,17.94V675.12Z" transform="translate(58.35 184.56)" style="fill: #8dc91a"/>
          <path d="M623.49,633.61,616.72,651c-4.1-1.93-8.37-4.28-11.73-5-10.77-2.4-21.17,1.19-28.29,12.61v88.9h-18.2V637.06l17.33-4.31h.87V656c9.48-14.45,21.12-23.72,36.22-23.72A45.75,45.75,0,0,1,623.49,633.61Z" transform="translate(58.35 184.56)" style="fill: #8dc91a"/>
          <path d="M724.63,725.57a58.67,58.67,0,0,1-5.3,6.09,58,58,0,1,1-82.06-82.07c12-12,25.05-18.19,38-18v0c.31,0,.58,0,.86,0s.56,0,.85.06c.51,0,1,.07,1.52.1l.18,0c22.28,2,36.78,18.23,38.16,45,0,1.15.07,2.32.1,3.52H627c-.66,14.78,6.72,27.06,19.33,39.68,22.58,21.73,52.34,28.1,70.92,9.5a38.12,38.12,0,0,0,3.46-4Zm-97.32-48.73h70.34c0-.46,0-.92-.06-1.38a1.32,1.32,0,0,0,0-.28c0-1.38-.13-2.72-.28-4a7,7,0,0,0-.11-.82c-4.12-33.59-26.93-31.11-26.93-31.11a42.88,42.88,0,0,0-30.86,12.43A42.23,42.23,0,0,0,627.31,676.84Z" transform="translate(58.35 184.56)" style="fill: #8dc91a"/>
          <path d="M836.7,725.57a58.77,58.77,0,0,1-5.31,6.09,58,58,0,0,1-82-82.07c12-12,25-18.19,38-18v0c.31,0,.59,0,.87,0l.84.06c.51,0,1,.07,1.53.1l.18,0c22.27,2,36.77,18.23,38.15,45,.05,1.15.08,2.32.1,3.52H739.07c-.66,14.78,6.71,27.06,19.33,39.68,22.57,21.73,52.33,28.1,70.91,9.5a38.23,38.23,0,0,0,3.47-4Zm-97.33-48.73h70.34c0-.46,0-.92-.05-1.38a1.32,1.32,0,0,0,0-.28,39.18,39.18,0,0,0-.29-4,7.07,7.07,0,0,0-.1-.82c-4.13-33.59-26.94-31.11-26.94-31.11a42.9,42.9,0,0,0-30.86,12.43A42.29,42.29,0,0,0,739.37,676.84Z" transform="translate(58.35 184.56)" style="fill: #8dc91a"/>
          <path d="M947.94,671.87v75.46H929.47V673.6c0-9.49,5.76-37.23-24-37.23-14,0-24.58,6.61-37.73,19.11v91.86H849.61V637l17.26-4.32h.87v18.76c14-12.93,27.59-19.62,44.62-19.62C935.87,631.77,947.94,644.49,947.94,671.87Z" transform="translate(58.35 184.56)" style="fill: #8dc91a"/>
        </g>
        <g>
          <path d="M284.15,786.38H266v-3.32h40v3.32H287.82v47.08h-3.67Z" transform="translate(58.35 184.56)"/>
          <path d="M312.58,785.91a2.75,2.75,0,0,1-.86-2,2.94,2.94,0,0,1,2.95-3,2.91,2.91,0,0,1,2.09.82,2.73,2.73,0,0,1,.86,2.06,2.81,2.81,0,0,1-.86,2.08,2.84,2.84,0,0,1-2.09.87A2.94,2.94,0,0,1,312.58,785.91Zm.29,10h3.6v37.58h-3.6Z" transform="translate(58.35 184.56)"/>
          <path d="M336.78,831.3a17.49,17.49,0,0,1-6.77-6.8,21.09,21.09,0,0,1,0-19.73,17.35,17.35,0,0,1,6.77-6.77,19.81,19.81,0,0,1,9.79-2.41,18.88,18.88,0,0,1,8.24,1.77,14.83,14.83,0,0,1,6,5.14l-2.66,2a12.73,12.73,0,0,0-5-4.21,15.28,15.28,0,0,0-6.59-1.41,15.72,15.72,0,0,0-7.89,2,14.05,14.05,0,0,0-5.47,5.58,18.3,18.3,0,0,0,0,16.56,14.05,14.05,0,0,0,5.47,5.58,15.72,15.72,0,0,0,7.89,2,15.27,15.27,0,0,0,6.59-1.4,12.81,12.81,0,0,0,5-4.21l2.66,1.94a14.85,14.85,0,0,1-6,5.15,18.88,18.88,0,0,1-8.24,1.76A19.42,19.42,0,0,1,336.78,831.3Z" transform="translate(58.35 184.56)"/>
          <path d="M384.37,813.38l-9.79,8.92v11.16H371V780h3.6v37.8l24-22h4.61L387,811.07l17.79,22.39h-4.47Z" transform="translate(58.35 184.56)"/>
          <path d="M443.55,815.54H411.22a15.69,15.69,0,0,0,2.24,7.81,14.25,14.25,0,0,0,5.65,5.29,17,17,0,0,0,8,1.87,17.18,17.18,0,0,0,6.8-1.33,13.31,13.31,0,0,0,5.22-3.92l2.09,2.37a16.09,16.09,0,0,1-6.16,4.54,21.44,21.44,0,0,1-18-.87,17.74,17.74,0,0,1-6.88-6.76,19.4,19.4,0,0,1-2.48-9.87,20.48,20.48,0,0,1,2.34-9.83,17.22,17.22,0,0,1,6.44-6.8,18.63,18.63,0,0,1,18.4,0,17.17,17.17,0,0,1,6.4,6.74,20.21,20.21,0,0,1,2.34,9.79Zm-25-15a13.53,13.53,0,0,0-5.08,5,16.2,16.2,0,0,0-2.19,7.24h28.8a15.19,15.19,0,0,0-2.16-7.2,14,14,0,0,0-12.24-6.77A14.46,14.46,0,0,0,418.57,800.52Z" transform="translate(58.35 184.56)"/>
          <path d="M473.43,831.09a9.12,9.12,0,0,1-3.42,2,13.6,13.6,0,0,1-4.28.68q-4.91,0-7.56-2.7a10.22,10.22,0,0,1-2.67-7.52V799h-6.91v-3.1h6.91v-8.21h3.6v8.21h12V799h-12v24.19a7.92,7.92,0,0,0,1.77,5.58,6.75,6.75,0,0,0,5.22,1.91,8.37,8.37,0,0,0,5.83-2.09Z" transform="translate(58.35 184.56)"/>
          <path d="M541.29,811.72a12.29,12.29,0,0,1,2.85,8.42,11.53,11.53,0,0,1-4.69,9.87q-4.68,3.45-13.89,3.45H503.1v-50.4h21q8.21,0,12.78,3.35a11.12,11.12,0,0,1,4.57,9.54,11.57,11.57,0,0,1-2.27,7.27,12.48,12.48,0,0,1-6.15,4.25A14,14,0,0,1,541.29,811.72Zm-34.52-25.49v20.09H524q6.62,0,10.18-2.56a9.63,9.63,0,0,0,0-15q-3.55-2.55-10.18-2.56Zm29.91,41.51q3.78-2.55,3.78-7.88T536.68,812q-3.78-2.52-11.12-2.52H506.77V830.3h18.79Q532.9,830.3,536.68,827.74Z" transform="translate(58.35 184.56)"/>
          <path d="M561.16,831.3a17.59,17.59,0,0,1-6.73-6.8,20.95,20.95,0,0,1,0-19.66,17.66,17.66,0,0,1,6.73-6.8,20.09,20.09,0,0,1,19.23,0,17.66,17.66,0,0,1,6.73,6.8,20.95,20.95,0,0,1,0,19.66,17.59,17.59,0,0,1-6.73,6.8,20.09,20.09,0,0,1-19.23,0Zm17.35-2.8a14.53,14.53,0,0,0,5.4-5.62,18,18,0,0,0,0-16.42,14.5,14.5,0,0,0-5.4-5.61,15.84,15.84,0,0,0-15.48,0,14.5,14.5,0,0,0-5.4,5.61,18,18,0,0,0,0,16.42,14.53,14.53,0,0,0,5.4,5.62,15.91,15.91,0,0,0,15.48,0Z" transform="translate(58.35 184.56)"/>
          <path d="M623.26,833.46l-12.89-16.77-12.88,16.77h-4.11l14.91-19.36-14.12-18.22h4.11l12.09,15.62,12.1-15.62h4L612.39,814.1l15.12,19.36Z" transform="translate(58.35 184.56)"/>
        </g>
      </g>
    </g>
  </g>
</svg>
