<svg xmlns="http://www.w3.org/2000/svg" viewBox="0 0 947.94 244.31">
  <g id="eee8be13-08c2-43e5-aa10-a2b785506ada" data-name="Layer 2">
    <g id="faffe109-e08d-419d-8fc3-c80b3d62835d" data-name="Layer 1">
      <g id="f64996e4-f4fb-445e-836f-2332a1fd5e72" data-name="be310803-2f77-4255-aee6-b1a74c5ca054">
        <g id="e29d0903-543d-4a54-a0c9-f64de60056e6" data-name="bbe2ad62-6ab3-43d2-a2ef-bb4f989ce90e">
          <g>
            <g>
              <path d="M139.46,76.94c0,50.88-31.69,80.42-79.77,80.42H0V.36H61C109.06.4,139.46,27.79,139.46,76.94Zm-24.16,1.3c0-44.42-16.16-75.86-56.48-75.86H20.44V152a207.54,207.54,0,0,0,40.26,3.65c41,0,54.6-29.09,54.6-77.38Z" style="fill: #313131"/>
              <path d="M268,100.33a59.13,59.13,0,1,1-17.31-41.86A59.14,59.14,0,0,1,268,100.33Zm-11.19,4.07c-1.17-13.79-7.7-27.26-18.39-37.94C226.21,54.24,211,48,196.55,48c-11.76,0-18.88,4.16-27.39,12.68-18.94,18.94-11.83,48.45,10.38,70.66s50.05,27.65,69,8.71C257.67,130.89,258,118.23,256.81,104.4Z" style="fill: #313131"/>
              <path d="M346.54,152.41c-8.19,4.75-16,8-26.09,8-25.44,0-33.83-20.7-33.83-28.45l-.14-83.73-17,5.56-1.6-8.88,17.46-.06L304.52,11h.85V44.85h39.89l-5.4,10.57-34.37-7.16-.11,82c0,6.68.2,27.5,20,27.5,5.17,0,11.86-3.79,19.41-7.88Z" style="fill: #313131"/>
              <path d="M541.15,84.47V157H529.94v-14.2a79.79,79.79,0,1,1,7.44-119.41c.92.92,1.82,1.87,2.67,2.82l-14,13.6c-.85-.93-1.72-1.82-2.59-2.7C492.89,6.52,452.2-2.18,425.56,24.47s-16.61,67.68,14,98.25C467.84,151,502.87,161,530,140.66V85.59Z" style="fill: #8dc91a"/>
              <path d="M623.49,44.08l-6.77,17.39c-4.1-1.93-8.37-4.28-11.73-5-10.77-2.4-21.17,1.19-28.29,12.61V158H558.5V47.53l17.33-4.31h.87V66.47c9.48-14.45,21.12-23.72,36.22-23.72A46,46,0,0,1,623.49,44.08Z" style="fill: #8dc91a"/>
              <path d="M724.63,136a59,59,0,0,1-5.3,6.09,58,58,0,0,1-82.06-82.07c12-12,25.05-18.19,38-18h.86a4.1,4.1,0,0,1,.85.06c.51,0,1,.07,1.52.1h.18c22.28,2,36.78,18.23,38.16,45,0,1.15.07,2.32.1,3.52H627c-.66,14.78,6.72,27.06,19.33,39.68,22.58,21.73,52.34,28.1,70.92,9.5a38.76,38.76,0,0,0,3.46-4ZM627.31,87.31h70.34a10.62,10.62,0,0,0-.06-1.38,1.31,1.31,0,0,0,0-.28,34.24,34.24,0,0,0-.28-4,7.35,7.35,0,0,0-.11-.82c-4.12-33.59-26.93-31.11-26.93-31.11a42.86,42.86,0,0,0-30.86,12.43A42.18,42.18,0,0,0,627.31,87.31Z" style="fill: #8dc91a"/>
              <path d="M836.7,136a59.08,59.08,0,0,1-5.31,6.09,58,58,0,0,1-82-82.07c12-12,25-18.19,38-18h.87l.84.06c.51,0,1,.07,1.53.1h.18c22.27,2,36.77,18.23,38.15,45,0,1.15.08,2.32.1,3.52h-90c-.66,14.78,6.71,27.06,19.33,39.68,22.57,21.73,52.33,28.1,70.91,9.5a37.68,37.68,0,0,0,3.47-4ZM739.37,87.31h70.34a12.73,12.73,0,0,0-.05-1.38,1.31,1.31,0,0,0,0-.28c0-1.34-.13-2.67-.29-4a7.35,7.35,0,0,0-.1-.82c-4.13-33.59-26.94-31.11-26.94-31.11a42.87,42.87,0,0,0-30.86,12.43A42.24,42.24,0,0,0,739.37,87.31Z" style="fill: #8dc91a"/>
              <path d="M947.94,82.34V157.8H929.47V84.07c0-9.49,5.76-37.23-24-37.23-14,0-24.58,6.61-37.73,19.11v91.86H849.61V47.47l17.26-4.32h.87V61.91c14-12.93,27.59-19.62,44.62-19.62C935.87,42.24,947.94,55,947.94,82.34Z" style="fill: #8dc91a"/>
            </g>
            <g>
              <path d="M284.15,196.85H266v-3.32h40v3.32H287.82v47.08h-3.67Z"/>
              <path d="M312.58,196.38a2.75,2.75,0,0,1-.86-2,3,3,0,0,1,2.88-3h.07a2.91,2.91,0,0,1,2.09.82,2.71,2.71,0,0,1,.86,2.06,2.81,2.81,0,0,1-.86,2.08,2.84,2.84,0,0,1-2.09.87A3,3,0,0,1,312.58,196.38Zm.29,10h3.6V244h-3.6Z"/>
              <path d="M336.78,241.77A17.49,17.49,0,0,1,330,235a21.07,21.07,0,0,1,0-19.73,17.35,17.35,0,0,1,6.77-6.77,19.68,19.68,0,0,1,9.79-2.41,18.93,18.93,0,0,1,8.24,1.77,14.79,14.79,0,0,1,6,5.14l-2.66,2a12.67,12.67,0,0,0-5-4.21,15.15,15.15,0,0,0-6.59-1.41,15.68,15.68,0,0,0-7.89,2,14,14,0,0,0-5.47,5.58,18.3,18.3,0,0,0,0,16.56,14.11,14.11,0,0,0,5.47,5.58,15.68,15.68,0,0,0,7.89,2,15.31,15.31,0,0,0,6.59-1.4,12.84,12.84,0,0,0,5-4.21l2.66,1.94a14.81,14.81,0,0,1-6,5.15,18.92,18.92,0,0,1-8.24,1.76A19.41,19.41,0,0,1,336.78,241.77Z"/>
              <path d="M384.37,223.85l-9.79,8.92v11.16H371V190.47h3.6v37.8l24-22h4.61L387,221.54l17.79,22.39h-4.47Z"/>
              <path d="M443.55,226H411.22a15.72,15.72,0,0,0,2.24,7.81,14.24,14.24,0,0,0,5.65,5.29,17,17,0,0,0,8,1.87,17.25,17.25,0,0,0,6.8-1.33,13.28,13.28,0,0,0,5.22-3.92l2.09,2.37a16.1,16.1,0,0,1-6.16,4.54,21.43,21.43,0,0,1-18-.87,17.81,17.81,0,0,1-6.88-6.76,19.37,19.37,0,0,1-2.48-9.87,20.51,20.51,0,0,1,2.34-9.83,17.26,17.26,0,0,1,6.44-6.8,18.63,18.63,0,0,1,18.4,0,17.14,17.14,0,0,1,6.4,6.74,20.21,20.21,0,0,1,2.34,9.79Zm-25-15a13.54,13.54,0,0,0-5.08,5,16.25,16.25,0,0,0-2.19,7.24h28.8a15.27,15.27,0,0,0-2.16-7.2,14,14,0,0,0-12.24-6.77,14.42,14.42,0,0,0-7.11,1.71Z"/>
              <path d="M473.43,241.56a9.16,9.16,0,0,1-3.42,2,13.83,13.83,0,0,1-4.28.68q-4.91,0-7.56-2.7A10.22,10.22,0,0,1,455.5,234V209.47h-6.91v-3.1h6.91v-8.21h3.6v8.21h12v3.1h-12v24.19a8,8,0,0,0,1.77,5.58,6.75,6.75,0,0,0,5.22,1.91,8.36,8.36,0,0,0,5.83-2.09Z"/>
              <path d="M541.29,222.19a12.3,12.3,0,0,1,2.85,8.42,11.54,11.54,0,0,1-4.69,9.87q-4.68,3.45-13.89,3.45H503.1v-50.4h21q8.21,0,12.78,3.35a11.11,11.11,0,0,1,4.57,9.54,11.52,11.52,0,0,1-2.27,7.27,12.52,12.52,0,0,1-6.15,4.25A13.94,13.94,0,0,1,541.29,222.19ZM506.77,196.7v20.09H524q6.62,0,10.18-2.56a9.63,9.63,0,0,0,1.46-13.54,9.16,9.16,0,0,0-1.46-1.46q-3.55-2.55-10.18-2.56Zm29.91,41.51q3.78-2.55,3.78-7.88t-3.78-7.86Q532.9,220,525.56,220H506.77v20.82h18.79Q532.9,240.77,536.68,238.21Z"/>
              <path d="M561.16,241.77a17.59,17.59,0,0,1-6.73-6.8,20.93,20.93,0,0,1,0-19.66,17.59,17.59,0,0,1,6.73-6.8,20.07,20.07,0,0,1,19.23,0,17.59,17.59,0,0,1,6.73,6.8,20.93,20.93,0,0,1,0,19.66,17.59,17.59,0,0,1-6.73,6.8A20.07,20.07,0,0,1,561.16,241.77Zm17.35-2.8a14.51,14.51,0,0,0,5.4-5.62,18,18,0,0,0,0-16.42,14.41,14.41,0,0,0-5.4-5.61,15.86,15.86,0,0,0-15.48,0,14.41,14.41,0,0,0-5.4,5.61,18,18,0,0,0,0,16.42A14.51,14.51,0,0,0,563,239,15.91,15.91,0,0,0,578.51,239Z"/>
              <path d="M623.26,243.93l-12.89-16.77-12.88,16.77h-4.11l14.91-19.36-14.12-18.22h4.11L610.37,222l12.1-15.62h4l-14.08,18.22,15.12,19.36Z"/>
            </g>
          </g>
        </g>
      </g>
    </g>
  </g>
</svg>
